<svg width="21" height="21" viewBox="0 0 12 20" fill="none" xmlns="http://www.w3.org/2000/svg">
<path d="M6 5.06222C5.51 5.06222 5.076 5.27402 4.799 5.6109C4.44056 6.04661 3.90721 6.33448 3.31628 6.41118C2.72536 6.48788 2.12526 6.34713 1.648 6.0199C1.17074 5.69266 0.855423 5.20574 0.771407 4.66626C0.68739 4.12678 0.84156 3.57892 1.2 3.14321C1.95568 2.22336 3.00926 1.54392 4.21147 1.20117C5.41368 0.858424 6.70355 0.869746 7.89832 1.23353C9.09308 1.59732 10.1322 2.29512 10.8683 3.22808C11.6045 4.16103 12.0004 5.28181 12 6.43163V17.387C12 17.8712 11.7893 18.3356 11.4142 18.678C11.0391 19.0205 10.5304 19.2128 10 19.2128H2C1.46957 19.2128 0.960859 19.0205 0.585786 18.678C0.210714 18.3356 0 17.8712 0 17.387V9.62694C0 9.14268 0.210714 8.67826 0.585786 8.33584C0.960859 7.99342 1.46957 7.80105 2 7.80105H6C6.39782 7.80105 6.77936 7.65677 7.06066 7.39996C7.34196 7.14314 7.5 6.79483 7.5 6.43163C7.5 6.06844 7.34196 5.72013 7.06066 5.46331C6.77936 5.2065 6.39782 5.06222 6 5.06222ZM3.75 15.1046C3.55109 15.1046 3.36032 15.1767 3.21967 15.3051C3.07902 15.4335 3 15.6077 3 15.7893C3 15.9709 3.07902 16.1451 3.21967 16.2735C3.36032 16.4019 3.55109 16.474 3.75 16.474H8.25C8.44891 16.474 8.63968 16.4019 8.78033 16.2735C8.92098 16.1451 9 15.9709 9 15.7893C9 15.6077 8.92098 15.4335 8.78033 15.3051C8.63968 15.1767 8.44891 15.1046 8.25 15.1046H3.75Z" fill="black"/>
</svg>
