<svg width="28" height="28" viewBox="0 0 28 28" fill="none" xmlns="http://www.w3.org/2000/svg">
<g clip-path="url(#clip0_2_7176)">
<path d="M25.0827 4.66611H21.9716V6.99944C21.9716 7.22414 21.9273 7.44665 21.8413 7.65425C21.7553 7.86185 21.6293 8.05049 21.4704 8.20938C21.3115 8.36827 21.1229 8.49431 20.9153 8.5803C20.7077 8.66629 20.4851 8.71055 20.2604 8.71055C20.0357 8.71055 19.8132 8.66629 19.6056 8.5803C19.398 8.49431 19.2094 8.36827 19.0505 8.20938C18.8916 8.05049 18.7656 7.86185 18.6796 7.65425C18.5936 7.44665 18.5493 7.22414 18.5493 6.99944V4.66611H9.48822V6.99944C9.48822 7.45325 9.30794 7.88848 8.98705 8.20938C8.66615 8.53027 8.23093 8.71055 7.77711 8.71055C7.3233 8.71055 6.88807 8.53027 6.56717 8.20938C6.24628 7.88848 6.066 7.45325 6.066 6.99944V4.66611H2.95489C2.76979 4.664 2.58616 4.69903 2.41484 4.76913C2.24352 4.83923 2.088 4.94297 1.95748 5.07423C1.82695 5.20548 1.72407 5.36157 1.65492 5.53327C1.58577 5.70498 1.55176 5.8888 1.55489 6.07388V23.4806C1.5518 23.6624 1.58456 23.843 1.65129 24.0122C1.71802 24.1813 1.81743 24.3357 1.94382 24.4664C2.07022 24.5971 2.22113 24.7017 2.38794 24.7741C2.55475 24.8465 2.73418 24.8853 2.916 24.8883H25.0827C25.2645 24.8853 25.4439 24.8465 25.6107 24.7741C25.7775 24.7017 25.9284 24.5971 26.0548 24.4664C26.1812 24.3357 26.2806 24.1813 26.3474 24.0122C26.4141 23.843 26.4469 23.6624 26.4438 23.4806V6.07388C26.4469 5.89207 26.4141 5.71143 26.3474 5.54227C26.2806 5.37312 26.1812 5.21877 26.0548 5.08804C25.9284 4.95731 25.7775 4.85276 25.6107 4.78037C25.4439 4.70797 25.2645 4.66914 25.0827 4.66611ZM7.77711 20.2217H6.22155V18.6661H7.77711V20.2217ZM7.77711 16.3328H6.22155V14.7772H7.77711V16.3328ZM7.77711 12.4439H6.22155V10.8883H7.77711V12.4439ZM12.4438 20.2217H10.8882V18.6661H12.4438V20.2217ZM12.4438 16.3328H10.8882V14.7772H12.4438V16.3328ZM12.4438 12.4439H10.8882V10.8883H12.4438V12.4439ZM17.1104 20.2217H15.5549V18.6661H17.1104V20.2217ZM17.1104 16.3328H15.5549V14.7772H17.1104V16.3328ZM17.1104 12.4439H15.5549V10.8883H17.1104V12.4439ZM21.7771 20.2217H20.2216V18.6661H21.7771V20.2217ZM21.7771 16.3328H20.2216V14.7772H21.7771V16.3328ZM21.7771 12.4439H20.2216V10.8883H21.7771V12.4439Z" fill="black"/>
<path d="M7.77778 7.77789C7.98406 7.77789 8.18189 7.69594 8.32775 7.55008C8.47361 7.40422 8.55556 7.20639 8.55556 7.00011V2.33344C8.55556 2.12716 8.47361 1.92933 8.32775 1.78347C8.18189 1.63761 7.98406 1.55566 7.77778 1.55566C7.5715 1.55566 7.37367 1.63761 7.22781 1.78347C7.08194 1.92933 7 2.12716 7 2.33344V7.00011C7 7.20639 7.08194 7.40422 7.22781 7.55008C7.37367 7.69594 7.5715 7.77789 7.77778 7.77789Z" fill="black"/>
<path d="M20.2231 7.77789C20.4294 7.77789 20.6272 7.69594 20.7731 7.55008C20.9189 7.40422 21.0009 7.20639 21.0009 7.00011V2.33344C21.0009 2.12716 20.9189 1.92933 20.7731 1.78347C20.6272 1.63761 20.4294 1.55566 20.2231 1.55566C20.0168 1.55566 19.819 1.63761 19.6731 1.78347C19.5273 1.92933 19.4453 2.12716 19.4453 2.33344V7.00011C19.4453 7.20639 19.5273 7.40422 19.6731 7.55008C19.819 7.69594 20.0168 7.77789 20.2231 7.77789Z" fill="black"/>
</g>
<defs>
<clipPath id="clip0_2_7176">
<rect width="28" height="28" fill="white"/>
</clipPath>
</defs>
</svg>
