<svg width="21" height="21" viewBox="0 0 31 31" fill="none" xmlns="http://www.w3.org/2000/svg">
<path d="M10.334 15.5666C12.9109 15.5666 14.8548 13.6227 14.8548 11.0458C14.8548 8.46892 12.9109 6.52496 10.334 6.52496C7.75711 6.52496 5.81315 8.46892 5.81315 11.0458C5.81315 13.6227 7.75711 15.5666 10.334 15.5666ZM11.6257 16.7911H9.04232C5.48119 16.7911 2.58398 19.6883 2.58398 23.2495V24.5411H18.084V23.2495C18.084 19.6883 15.1868 16.7911 11.6257 16.7911ZM23.7208 3.4043L21.8944 5.23071C23.6007 6.93959 24.5423 9.21034 24.5423 11.6245C24.5423 14.0386 23.6007 16.3093 21.8944 18.0182L23.7208 19.8446C25.9167 17.6475 27.1257 14.7283 27.1257 11.6245C27.1257 8.52059 25.9167 5.60142 23.7208 3.4043Z" fill="black"/>
<path d="M20.0667 7.05762L18.2402 8.88662C18.9726 9.61641 19.3756 10.589 19.3756 11.6249C19.3756 12.6609 18.9726 13.6335 18.2402 14.3633L20.0667 16.1923C21.286 14.973 21.9589 13.3519 21.9589 11.6249C21.9589 9.89799 21.286 8.27695 20.0667 7.05762Z" fill="black"/>
</svg>
