<svg width="20" height="20" viewBox="0 0 20 20" fill="none" xmlns="http://www.w3.org/2000/svg">
<g clip-path="url(#clip0_2_7165)">
<path d="M20.005 5.92126C19.2572 6.25437 18.4632 6.47185 17.65 6.56626C18.5065 6.05293 19.1478 5.24641 19.455 4.29626C18.6494 4.77362 17.7685 5.11051 16.85 5.29251C16.4656 4.88345 16.0014 4.55766 15.486 4.33533C14.9706 4.11301 14.4151 3.99888 13.8538 4.00001C13.2355 3.99936 12.6251 4.13855 12.0682 4.40716C11.5113 4.67577 11.0224 5.06685 10.638 5.55112C10.2537 6.0354 9.98382 6.60033 9.84865 7.20364C9.71348 7.80696 9.7165 8.43303 9.8575 9.03501C8.22588 8.95303 6.62974 8.52884 5.1727 7.78998C3.71565 7.05112 2.43027 6.01411 1.4 4.74626C0.875181 5.64919 0.714246 6.7182 0.949965 7.73562C1.18568 8.75304 1.80033 9.64237 2.66875 10.2225C2.01706 10.2014 1.37965 10.0262 0.80875 9.71126V9.76251C0.808523 10.7102 1.13633 11.6288 1.7365 12.3623C2.33668 13.0958 3.17222 13.5989 4.10125 13.7863C3.49603 13.9512 2.86109 13.9756 2.245 13.8575C2.50794 14.6723 3.01842 15.3849 3.70536 15.8959C4.39229 16.407 5.22149 16.6911 6.0775 16.7088C5.22598 17.3777 4.25086 17.8721 3.20798 18.1636C2.1651 18.4551 1.07496 18.538 0 18.4075C1.87671 19.6141 4.06139 20.2542 6.2925 20.2513C13.8388 20.2513 17.9688 13.9975 17.9688 8.57501C17.9688 8.39501 17.965 8.22001 17.9575 8.04376C18.7616 7.46544 19.4547 6.74686 20.0037 5.92251L20.005 5.92126Z" fill="black"/>
</g>
<defs>
<clipPath id="clip0_2_7165">
<rect width="20" height="20" fill="white"/>
</clipPath>
</defs>
</svg>
