<svg width="18" height="17" viewBox="0 0 18 17" fill="none" xmlns="http://www.w3.org/2000/svg">
<path d="M18 8.21601C18 10.4309 17.1391 12.3243 15.4174 13.8961C13.6957 15.468 11.6087 16.2539 9.15652 16.2539C7.69565 16.2539 6.27391 15.9205 4.8913 15.2536L0 16.6468L1.56522 12.36C0.730435 11.0739 0.313043 9.6926 0.313043 8.21601C0.313043 6.00113 1.17391 4.11372 2.89565 2.55378C4.61739 0.993838 6.70435 0.213867 9.15652 0.213867C11.6087 0.213867 13.6957 0.993838 15.4174 2.55378C17.1391 4.11372 18 6.00113 18 8.21601ZM9.15652 1.4642C7.09565 1.4642 5.3413 2.12509 3.89348 3.44688C2.44565 4.76866 1.72174 6.35837 1.72174 8.21601C1.72174 9.6926 2.1913 11.0144 3.13043 12.1814L2.1913 14.682L5.08696 13.8604C6.36522 14.5987 7.72174 14.9678 9.15652 14.9678C11.2174 14.9678 12.9717 14.3069 14.4196 12.9851C15.8674 11.6634 16.5913 10.0737 16.5913 8.21601C16.5913 6.35837 15.8674 4.76866 14.4196 3.44688C12.9717 2.12509 11.2174 1.4642 9.15652 1.4642ZM13.6174 10.0737C13.5913 10.0498 13.4609 9.96648 13.2261 9.82359C13.1478 9.79977 12.9 9.69855 12.4826 9.51993C12.0652 9.34131 11.8174 9.2401 11.7391 9.21628C11.5043 9.14483 11.3348 9.16865 11.2304 9.28773C11.2043 9.35918 11.1457 9.44849 11.0543 9.55566C10.963 9.66283 10.8652 9.77 10.7609 9.87717C10.6565 9.98434 10.5913 10.0498 10.5652 10.0737C10.4609 10.2165 10.3043 10.2285 10.0957 10.1094C9.2087 9.70451 8.62174 9.38299 8.33478 9.14483C8.15217 8.97812 7.97609 8.7995 7.80652 8.60898C7.63696 8.41845 7.48043 8.23983 7.33696 8.07312C7.19348 7.90641 7.12174 7.81114 7.12174 7.78733C7.04348 7.62062 7.08261 7.48963 7.23913 7.39436C7.34348 7.25147 7.44783 7.13239 7.55217 7.03713L7.78696 6.71561C7.83913 6.59653 7.82609 6.47745 7.74783 6.35837C7.64348 6.04877 7.42174 5.56054 7.08261 4.89369C7.00435 4.67935 6.84783 4.57218 6.61304 4.57218H6.18261C5.94783 4.57218 5.75217 4.65553 5.59565 4.82225C5.1 5.27475 4.85217 5.81061 4.85217 6.42982C4.85217 7.0014 5.13913 7.68015 5.71304 8.46608L5.7913 8.57325C5.84348 8.6447 5.90217 8.7221 5.96739 8.80546C6.03261 8.88881 6.12391 8.99598 6.2413 9.12697C6.3587 9.25796 6.47609 9.38299 6.59348 9.50207C6.71087 9.62115 6.84783 9.75809 7.00435 9.9129C7.16087 10.0677 7.33043 10.2165 7.51304 10.3594C7.69565 10.5023 7.88478 10.6393 8.08043 10.7703C8.27609 10.9013 8.4913 11.0203 8.72609 11.1275C8.96087 11.2347 9.19565 11.3359 9.43043 11.4312C9.84783 11.5741 10.2065 11.6931 10.5065 11.7884C10.8065 11.8837 11.0413 11.9432 11.2109 11.967C11.3804 11.9908 11.5043 12.0027 11.5826 12.0027C11.6609 12.0027 11.7522 11.9908 11.8565 11.967C11.9609 11.9432 12.0261 11.9313 12.0522 11.9313C12.287 11.9075 12.5674 11.8003 12.8935 11.6098C13.2196 11.4193 13.4217 11.2168 13.5 11.0025C13.7087 10.5023 13.7478 10.1927 13.6174 10.0737Z" fill="black"/>
</svg>
